<?xml version="1.0" standalone="no"?>
<!DOCTYPE svg PUBLIC "-//W3C//DTD SVG 20010904//EN"
 "http://www.w3.org/TR/2001/REC-SVG-20010904/DTD/svg10.dtd">
<svg version="1.0" xmlns="http://www.w3.org/2000/svg"
 width="399.000000pt" height="363.000000pt" viewBox="0 0 399.000000 363.000000"
 preserveAspectRatio="xMidYMid meet">

<g transform="translate(0.000000,363.000000) scale(0.100000,-0.100000)"
fill="#000000" stroke="none">
<path d="M2900 2911 c-42 -85 -44 -86 -133 -97 -55 -6 -87 -23 -87 -46 0 -5
27 -38 60 -73 l61 -63 -14 -83 c-8 -46 -13 -89 -10 -96 11 -28 44 -24 116 15
l72 39 65 -38 c72 -42 92 -46 110 -24 10 12 9 32 -1 100 l-12 86 56 57 c81 82
77 114 -18 126 -102 14 -100 12 -130 79 -59 125 -79 128 -135 18z m159 -163
c24 -4 45 -9 47 -11 2 -2 -12 -22 -32 -45 -34 -40 -35 -43 -26 -92 5 -27 7
-50 3 -50 -3 0 -19 9 -36 20 -38 25 -56 25 -106 0 l-39 -21 6 56 c7 55 6 57
-30 94 l-38 38 39 7 c66 12 72 16 93 64 l21 47 27 -50 c24 -45 31 -50 71 -57z"/>
<path d="M880 2910 l0 -40 -40 0 -40 0 0 -40 0 -40 40 0 40 0 0 -40 0 -40 40
0 40 0 0 40 0 40 40 0 40 0 0 40 0 40 -40 0 -40 0 0 40 0 40 -40 0 -40 0 0
-40z m80 -80 l0 -40 -40 0 -40 0 0 40 0 40 40 0 40 0 0 -40z"/>
<path d="M1200 2790 l0 -40 -40 0 -40 0 0 -40 0 -40 40 0 40 0 0 -40 0 -40 40
0 40 0 0 40 0 40 40 0 40 0 0 40 0 40 -40 0 -40 0 0 40 0 40 -40 0 -40 0 0
-40z m80 -80 l0 -40 -40 0 -40 0 0 40 0 40 40 0 40 0 0 -40z"/>
<path d="M2005 2528 c-48 -17 -94 -56 -116 -100 -28 -54 -24 -154 8 -195 l20
-28 -41 -21 c-33 -17 -73 -63 -214 -255 -96 -129 -178 -244 -183 -257 -13 -34
13 -90 46 -98 15 -4 56 -4 92 -1 78 6 80 7 193 161 47 63 88 115 91 116 4 0 9
-33 12 -72 5 -58 -3 -143 -40 -405 l-48 -333 -35 -6 c-68 -11 -70 -13 -70 -55
0 -47 4 -48 135 -19 258 57 501 169 715 329 129 97 317 288 384 393 23 36 8
63 -40 75 l-37 8 107 59 c59 32 108 57 110 55 3 -5 46 -201 46 -211 0 -3 -18
-4 -39 -1 -38 5 -41 4 -73 -43 -265 -385 -534 -636 -843 -788 -184 -91 -373
-146 -540 -158 -37 -3 -40 -5 -43 -37 -2 -18 1 -38 6 -43 14 -14 170 8 301 42
445 116 837 425 1187 938 1 2 27 -4 58 -14 45 -14 58 -15 70 -4 22 17 21 32
-23 228 -38 170 -50 202 -77 202 -22 0 -392 -209 -398 -225 -11 -29 7 -46 65
-62 33 -9 59 -20 59 -24 0 -10 -200 -219 -209 -219 -5 0 -23 51 -41 113 -18
61 -39 122 -47 135 -7 12 -53 42 -102 66 -99 50 -95 44 -106 177 l-6 74 167
125 c207 155 224 171 224 206 0 31 -52 117 -83 139 -12 8 -31 15 -44 15 -13 0
-87 -51 -183 -126 -89 -69 -163 -124 -165 -122 -2 2 0 20 4 40 14 62 -5 125
-54 174 -59 58 -129 77 -200 52z m141 -112 c39 -39 45 -86 19 -136 -58 -112
-229 -52 -212 74 8 59 52 96 113 96 39 0 51 -5 80 -34z m483 -25 l21 -29 -200
-152 c-151 -115 -200 -158 -200 -174 0 -50 33 -252 43 -264 6 -8 51 -34 99
-58 99 -50 91 -38 140 -205 l33 -111 -34 -30 -34 -31 -41 115 c-23 64 -48 123
-56 133 -21 26 -235 126 -253 119 -9 -3 -18 -12 -21 -21 -3 -8 -29 -143 -56
-300 -27 -158 -51 -287 -52 -288 -2 -2 -27 -10 -56 -18 -52 -16 -52 -16 -47 6
2 12 23 150 46 307 l42 285 -12 148 c-13 167 -15 174 -43 183 -27 8 -37 -3
-177 -187 -96 -127 -122 -154 -149 -161 -19 -5 -40 -8 -46 -6 -15 3 289 424
326 451 20 15 61 22 188 33 l163 14 71 55 c39 30 116 91 171 134 55 44 103 80
107 81 4 0 16 -13 27 -29z m-355 -829 l69 -37 38 -105 c21 -58 38 -112 38
-121 1 -24 -287 -184 -304 -168 -2 3 14 106 36 229 21 124 39 228 39 233 0 12
13 8 84 -31z"/>
<path d="M1090 1371 c-5 -11 -10 -34 -10 -51 0 -42 -24 -49 -59 -16 -15 14
-34 26 -42 26 -17 0 -159 -135 -159 -150 0 -5 13 -24 29 -42 38 -44 27 -68
-29 -68 -51 0 -60 -17 -60 -120 0 -105 8 -120 64 -120 57 0 67 -26 25 -66 -16
-15 -29 -32 -29 -38 0 -15 142 -156 156 -156 7 0 26 12 43 26 39 33 61 26 61
-20 0 -56 18 -66 124 -66 105 0 113 4 118 65 4 50 32 58 68 20 13 -14 31 -25
40 -25 15 0 160 139 160 154 0 3 -14 21 -30 40 -40 45 -32 66 26 66 60 0 68
18 59 129 -4 47 -12 92 -17 99 -6 6 -27 12 -48 12 -50 0 -60 24 -25 60 14 14
25 35 25 46 0 23 -128 154 -151 154 -9 0 -26 -11 -39 -25 -36 -38 -64 -30 -68
20 -5 61 -12 65 -123 65 -87 0 -99 -2 -109 -19z m170 -316 c81 -42 79 -170 -4
-209 -45 -21 -74 -20 -114 4 -130 80 -17 275 118 205z"/>
<path d="M3040 750 l0 -40 -40 0 -40 0 0 -40 0 -40 40 0 40 0 0 -40 0 -40 40
0 40 0 0 40 0 40 40 0 40 0 0 40 0 40 -40 0 -40 0 0 40 0 40 -40 0 -40 0 0
-40z m80 -80 l0 -40 -40 0 -40 0 0 40 0 40 40 0 40 0 0 -40z"/>
</g>
</svg>
